<svg width="300" height="300" viewBox="0 0 300 300" fill="none" xmlns="http://www.w3.org/2000/svg">
  <mask id="mask0_175_2" style="mask-type:alpha" maskUnits="userSpaceOnUse" x="168" y="6" width="132" height="287">
    <rect x="300" y="292.74" width="131.633" height="286.224" transform="rotate(180 300 292.74)" fill="#D9D9D9" />
  </mask>
  <g mask="url(#mask0_175_2)">
    <rect width="213.228" height="60.6034" transform="matrix(-0.779886 0.625921 -0.493149 -0.869945 335.204 160.806)"
      fill="url(#paint0_linear_175_2)" />
    <rect width="213.228" height="60.6034" transform="matrix(-0.779886 -0.625921 -0.493149 0.869945 335.204 140.113)"
      fill="url(#paint1_linear_175_2)" />
  </g>
  <mask id="mask1_175_2" style="mask-type:alpha" maskUnits="userSpaceOnUse" x="0" y="6" width="132" height="287">
    <rect y="6.5153" width="131.633" height="286.224" fill="#D9D9D9" />
  </mask>
  <g mask="url(#mask1_175_2)">
    <rect width="213.228" height="60.6034" transform="matrix(0.779886 -0.625921 0.493149 0.869945 -35.2041 138.449)"
      fill="url(#paint2_linear_175_2)" />
    <rect width="213.228" height="60.6034" transform="matrix(0.779886 0.625921 0.493149 -0.869945 -35.2041 159.142)"
      fill="url(#paint3_linear_175_2)" />
  </g>
  <defs>
    <linearGradient id="paint0_linear_175_2" x1="213.228" y1="30.3017" x2="0" y2="30.3017"
      gradientUnits="userSpaceOnUse">
      <stop stop-color="#02AAB0" />
      <stop offset="1" stop-color="#00CDAC" />
    </linearGradient>
    <linearGradient id="paint1_linear_175_2" x1="0" y1="30.3017" x2="213.228" y2="30.3017"
      gradientUnits="userSpaceOnUse">
      <stop stop-color="#000428" />
      <stop offset="1" stop-color="#004E92" />
    </linearGradient>
    <linearGradient id="paint2_linear_175_2" x1="213.228" y1="30.3017" x2="0" y2="30.3017"
      gradientUnits="userSpaceOnUse">
      <stop stop-color="#02AAB0" />
      <stop offset="1" stop-color="#00CDAC" />
    </linearGradient>
    <linearGradient id="paint3_linear_175_2" x1="0" y1="30.3017" x2="213.228" y2="30.3017"
      gradientUnits="userSpaceOnUse">
      <stop stop-color="#000428" />
      <stop offset="1" stop-color="#004E92" />
    </linearGradient>
  </defs>
</svg>